# xmcd
#
# Track frame offsets:
#	150
#	18518
#	37981
#	59169
#	76130
#	96559
#	113459
#	135423
#
# Disc length: 2078 seconds
#
# Revision: 1
# Processed by: cddbd v1.5.2PL0 Copyright (c) Steve Scherf et al.
# Submitted via: audiograbber 1.83.01
#
DISCID=60081c08
DTITLE=Skoten Seter - Dass Du uns liebst...
DYEAR=2000
DGENRE=Rock
TTITLE0=Bitte geh
TTITLE1=Brainticket
TTITLE2=Am Fenster
TTITLE3=Dass du mich liebst...
TTITLE4=Tief in mir
TTITLE5=Saug mich aus
TTITLE6=Don't play this game
TTITLE7=I'm crying
EXTD=
EXTT0=
EXTT1=
EXTT2=
EXTT3=
EXTT4=
EXTT5=
EXTT6=
EXTT7=
PLAYORDER=
